<svg width="16" height="16" viewBox="0 0 16 16" fill="none" xmlns="http://www.w3.org/2000/svg">
<g clip-path="url(#clip0_657_22126)">
<path fill-rule="evenodd" clip-rule="evenodd" d="M2 2.66659C2 2.31296 2.14048 1.97383 2.39052 1.72378C2.64057 1.47373 2.97971 1.33325 3.33333 1.33325H4.66667C4.90933 1.33325 5.13733 1.39792 5.33333 1.51192C5.5359 1.39459 5.76591 1.33295 6 1.33325H7.33333C7.818 1.33325 8.24267 1.59192 8.476 1.97925C8.616 1.86725 8.78 1.78192 8.964 1.73259L10.252 1.38792C10.4211 1.34255 10.5976 1.33094 10.7712 1.35376C10.9448 1.37658 11.1123 1.43338 11.2639 1.52092C11.4156 1.60846 11.5485 1.72502 11.6552 1.86394C11.7618 2.00287 11.84 2.16143 11.8853 2.33059L14.6453 12.6339C14.6907 12.8031 14.7023 12.9795 14.6795 13.1531C14.6567 13.3267 14.5999 13.4942 14.5123 13.6459C14.4248 13.7975 14.3082 13.9305 14.1693 14.0371C14.0304 14.1437 13.8718 14.2219 13.7027 14.2673L12.4147 14.6119C12.2455 14.6573 12.0691 14.6689 11.8955 14.6461C11.7218 14.6233 11.5544 14.5665 11.4027 14.4789C11.2511 14.3914 11.1181 14.2748 11.0115 14.1359C10.9049 13.997 10.8267 13.8384 10.7813 13.6693L8.66667 5.77525V13.3333C8.66667 13.6869 8.52619 14.026 8.27614 14.2761C8.02609 14.5261 7.68695 14.6666 7.33333 14.6666H6C5.76591 14.6669 5.5359 14.6052 5.33333 14.4879C5.13077 14.6052 4.90076 14.6669 4.66667 14.6666H3.33333C2.97971 14.6666 2.64057 14.5261 2.39052 14.2761C2.14048 14.026 2 13.6869 2 13.3333V2.66659ZM3.33333 2.66659H4.66667V13.3333H3.33333V2.66659ZM7.33333 13.3333H6V2.66659H7.33333V13.3333ZM9.30867 3.02059L10.5967 2.67592L13.358 12.9793L12.07 13.3239L9.30867 3.02059Z" fill="#727272"/>
</g>
<defs>
<clipPath id="clip0_657_22126">
<rect width="16" height="16" fill="white"/>
</clipPath>
</defs>
</svg>
