<svg width="16" height="16" viewBox="0 0 16 16" fill="none" xmlns="http://www.w3.org/2000/svg">
<g clip-path="url(#clip0_713_22661)">
<path d="M6.82137 6.82078C8.08373 5.55845 10.1065 5.5202 11.4149 6.70603L11.5354 6.82078L13.421 8.70638C14.7228 10.0081 14.7228 12.1186 13.421 13.4204C12.1588 14.6827 10.1359 14.721 8.82756 13.5351L8.70704 13.4204L7.29284 12.0062C7.03244 11.7458 7.03244 11.3237 7.29284 11.0634C7.53315 10.8231 7.91126 10.8046 8.17282 11.0079L8.23564 11.0634L9.64984 12.4776C10.4309 13.2586 11.6972 13.2586 12.4782 12.4776C13.2281 11.7278 13.2581 10.5308 12.5682 9.74518L12.4782 9.64918L10.5926 7.76358C9.81157 6.98252 8.54531 6.98252 7.76431 7.76358C7.50391 8.02392 7.08184 8.02392 6.82144 7.76358C6.56113 7.50325 6.56109 7.08112 6.82137 6.82078ZM5.33336 11.3332C5.67525 11.3332 5.95703 11.5906 5.99554 11.9222L6.00003 11.9999V13.3332C6.00003 13.7014 5.70155 13.9999 5.33336 13.9999C4.99147 13.9999 4.70969 13.7426 4.67118 13.411L4.66669 13.3332V11.9999C4.66669 11.6317 4.96517 11.3332 5.33336 11.3332ZM3.33336 9.99992C3.70155 9.99992 4.00003 10.2984 4.00003 10.6666C4.00003 11.0085 3.74266 11.2903 3.41111 11.3288L3.33336 11.3332H2.66669C2.2985 11.3332 2.00003 11.0348 2.00003 10.6666C2.00003 10.3247 2.25738 10.0429 2.58895 10.0044L2.66669 9.99992H3.33336ZM2.57873 2.57812C3.84103 1.31582 5.86386 1.27757 7.17225 2.46336L7.29277 2.57812L8.70697 3.99233C8.96731 4.25268 8.96731 4.67479 8.70697 4.93514C8.46667 5.17546 8.08849 5.19395 7.82698 4.9906L7.76417 4.93514L6.34996 3.52092C5.56891 2.73988 4.30259 2.73988 3.52153 3.52092C2.77173 4.27073 2.74174 5.46777 3.43156 6.25336L3.52153 6.34935L5.40715 8.23498C6.1882 9.01605 7.45457 9.01598 8.23557 8.23498C8.49591 7.97458 8.91804 7.97458 9.17837 8.23498C9.43877 8.49532 9.43871 8.91745 9.17837 9.17778C7.91609 10.4401 5.89326 10.4783 4.58487 9.29254L4.46435 9.17778L2.57873 7.29218C1.27698 5.99041 1.27698 3.87986 2.57873 2.57812ZM13.3334 4.66658C13.7016 4.66658 14 4.96506 14 5.33325C14 5.70144 13.7016 5.99992 13.3334 5.99992H12.6667C12.2985 5.99992 12 5.70144 12 5.33325C12 4.96506 12.2985 4.66658 12.6667 4.66658H13.3334ZM10.6667 1.99992C11.0086 1.99992 11.2904 2.25727 11.3289 2.58884L11.3334 2.66658V3.99992C11.3334 4.3681 11.0349 4.66658 10.6667 4.66658C10.3248 4.66658 10.043 4.40922 10.0045 4.07766L10 3.99992V2.66658C10 2.29839 10.2985 1.99992 10.6667 1.99992Z" fill="#727272"/>
</g>
<defs>
<clipPath id="clip0_713_22661">
<rect width="16" height="16" fill="white"/>
</clipPath>
</defs>
</svg>
