<svg width="20" height="20" viewBox="0 0 20 20" fill="none" xmlns="http://www.w3.org/2000/svg">
<path d="M10 2.5C14.1421 2.5 17.5 5.85786 17.5 10C17.5 14.1421 14.1421 17.5 10 17.5C5.85786 17.5 2.5 14.1421 2.5 10C2.5 5.85786 5.85786 2.5 10 2.5ZM10 13C9.58577 13 9.25 13.3358 9.25 13.75C9.25 14.1642 9.58577 14.5 10 14.5C10.4142 14.5 10.75 14.1642 10.75 13.75C10.75 13.3358 10.4142 13 10 13ZM10 5.875C8.49848 5.875 7.28125 7.09223 7.28125 8.59375C7.28125 9.00798 7.61704 9.34375 8.03125 9.34375C8.44546 9.34375 8.78125 9.00798 8.78125 8.59375C8.78125 7.92066 9.32688 7.375 10 7.375C10.6731 7.375 11.2188 7.92066 11.2188 8.59375C11.2188 9.10547 10.9032 9.54528 10.4532 9.72573C9.94698 9.9286 9.25 10.4478 9.25 11.3125V11.5C9.25 11.9142 9.58577 12.25 10 12.25C10.4142 12.25 10.75 11.9142 10.75 11.5C10.75 11.3172 10.787 11.2254 10.9459 11.147L11.0113 11.118C12.0107 10.7173 12.7188 9.73915 12.7188 8.59375C12.7188 7.09223 11.5015 5.875 10 5.875Z" fill="#289DF4"/>
</svg>
